<?xml version="1.0" encoding="utf-8"?>
<!-- Generator: Adobe Illustrator 16.0.0, SVG Export Plug-In . SVG Version: 6.00 Build 0)  -->
<!DOCTYPE svg PUBLIC "-//W3C//DTD SVG 1.1//EN" "http://www.w3.org/Graphics/SVG/1.1/DTD/svg11.dtd">
<svg version="1.1" xmlns="http://www.w3.org/2000/svg" xmlns:xlink="http://www.w3.org/1999/xlink" x="0px" y="0px"
	 width="595.28px" height="3595px" viewBox="0 0 595.28 3595" enable-background="new 0 0 595.28 3595" xml:space="preserve">
<g id="bg">
	<rect fill="#BCBBBB" width="595.28" height="3595"/>
</g>
<g id="save_the_heart">
	<g>
		<polygon fill="#89181A" points="116.335,96.661 192.335,96.661 192.335,152.661 116.335,152.661 134.022,124.661 		"/>
		<polygon fill="#89181A" points="478.945,152.661 402.944,152.661 402.944,96.661 478.945,96.661 461.258,124.661 		"/>
		<rect x="173.683" y="81.229" fill="#8E1B24" width="248.001" height="56"/>
		<rect x="211.075" y="100.093" fill="none" width="173.217" height="18.271"/>
		<text transform="matrix(1 0 0 1 211.0752 117.7568)" fill="#FFFFFF" font-family="'CenturyGothic'" font-size="24">Save the Heart</text>
		<polygon fill="#700E19" points="402.101,152.661 402.101,137.229 420.754,137.229 		"/>
		<polygon fill="#700E19" points="192.335,152.661 192.335,137.229 173.683,137.229 		"/>
	</g>
	<rect x="200.598" y="159.705" fill="none" width="194.083" height="69.507"/>
	<text transform="matrix(1 0 0 1 212.8828 171.353)"><tspan x="0" y="0" fill="#8E1B24" font-family="'ArialRoundedMTBold'" font-size="16">An infographic of how </tspan><tspan x="-12.105" y="19.2" fill="#8E1B24" font-family="'ArialRoundedMTBold'" font-size="16">to improve heart starters </tspan><tspan x="7.742" y="38.4" fill="#8E1B24" font-family="'ArialRoundedMTBold'" font-size="16">in an innovative and </tspan><tspan x="25.152" y="57.6" fill="#8E1B24" font-family="'ArialRoundedMTBold'" font-size="16">productive way</tspan></text>
	<path fill="#8E1B24" d="M297.64,259.376c0,0,9.383-9.765,21.254-9.765c0,0,25.083,0.382,25.083,29.487
		c0,0,1.724,13.978-21.253,36.572c0,0-14.17,13.212-25.084,18.19c-10.913-4.978-25.083-18.19-25.083-18.19
		c-22.978-22.594-21.253-36.572-21.253-36.572c0-29.104,25.082-29.487,25.082-29.487C288.258,249.611,297.64,259.376,297.64,259.376
		z"/>
	<path fill="#AEA9A9" d="M348.344,362.052"/>
</g>
<g id="heartstarter_info">
	<g>
		<g>
			<path fill="#8E1B24" d="M89.859,610.959h60.16v-44.15h0.146c0-16.693-13.533-30.226-30.229-30.226
				c-16.691,0-30.225,13.532-30.225,30.226h0.146V610.959z"/>
			<path fill="#FFFFFF" d="M150.093,566.809c0.074-17.403-14.008-30.226-30.48-30.226s-29.826,13.354-29.826,29.825
				c0,0,7.744-25.039,29.826-25.039C142.06,541.369,150.093,566.809,150.093,566.809z"/>
		</g>
		<rect x="100.782" y="568.051" fill="none" width="33.791" height="11.441"/>
		<text transform="matrix(1 0 0 1 100.7822 579.4102)" fill="#FFFFFF" font-family="'MyriadPro-Bold'" font-size="16">R.I.P</text>
		<rect x="172.111" y="558.707" fill="none" width="367.596" height="30.127"/>
		<text transform="matrix(1 0 0 1 172.1108 569.0098)"><tspan x="0" y="0" fill="#874E56" font-family="'CenturyGothic'" font-size="14">Every year, approximately 10 000 persons are affect</tspan><tspan x="350.233" y="0" fill="#874E56" font-family="'CenturyGothic'" font-size="14">-</tspan><tspan x="0" y="16" fill="#874E56" font-family="'CenturyGothic'" font-size="14">ed by cardiac arrest. Only </tspan><tspan x="181.125" y="16" fill="#8E1B24" font-family="'CenturyGothic-Bold'" font-size="14">500</tspan><tspan x="204.647" y="16" fill="#8E1B24" font-family="'CenturyGothic'" font-size="14"> </tspan><tspan x="208.524" y="16" fill="#874E56" font-family="'CenturyGothic'" font-size="14">of them survives...</tspan></text>
	</g>
	<g>
		<rect x="60" y="419.809" fill="none" width="357" height="30.087"/>
		<text transform="matrix(1 0 0 1 60.5464 430.1133)"><tspan x="0" y="0" fill="#874E56" font-family="'CenturyGothic'" font-size="14">In Sweden, heart starters are placed out everywhere </tspan><tspan x="22.928" y="16" fill="#874E56" font-family="'CenturyGothic'" font-size="14">in the society and is able to be used by anyone...</tspan></text>
		<g>
			<path fill="#8E1B24" d="M528.794,457.481c0,8.819-7.15,15.972-15.973,15.972h-55.902c-8.821,0-15.974-7.152-15.974-15.972
				v-45.256c0-8.82,7.152-15.973,15.974-15.973h55.902c8.822,0,15.973,7.152,15.973,15.973V457.481z"/>
			<path fill="#FFFFFF" d="M484.87,412.428c0,0,6.502-6.768,14.729-6.768c0,0,17.383,0.266,17.383,20.434
				c0,0,1.195,9.688-14.729,25.344c0,0-9.82,9.158-17.383,12.606c-7.563-3.448-17.383-12.606-17.383-12.606
				c-15.923-15.656-14.728-25.344-14.728-25.344c0-20.168,17.382-20.434,17.382-20.434
				C478.368,405.661,484.87,412.428,484.87,412.428z"/>
			<polygon fill="#8E1B24" points="491.937,414.715 473.989,436.62 484.729,436.62 477.239,454.991 495.753,432.38 485.86,431.956 
							"/>
		</g>
	</g>
	<g>
		<g>
			<rect x="77.439" y="829.462" fill="#8E1B24" width="85" height="44.289"/>
			<rect x="92.917" y="842.524" fill="none" width="54.043" height="18.164"/>
			
				<text transform="matrix(1 0 0 1 92.9175 860.1885)" fill="#FFFFFF" font-family="'CenturyGothic-Bold'" font-size="24" letter-spacing="-1">S O S</text>
		</g>
		<g>
			<rect x="186.224" y="836.663" fill="none" width="337.543" height="29.887"/>
			<text transform="matrix(1 0 0 1 186.2241 846.9668)"><tspan x="0" y="0" fill="#874E56" font-family="'CenturyGothic'" font-size="14">The time it takes for a person to get medical care </tspan><tspan x="0" y="16" fill="#874E56" font-family="'CenturyGothic'" font-size="14">is crucial for surviving. The sooner the better...</tspan></text>
		</g>
	</g>
	<g>
		<g>
			<rect x="101.193" y="697.507" fill="none" width="307.963" height="30.364"/>
			<text transform="matrix(1 0 0 1 135.3901 707.8105)"><tspan x="0" y="0" fill="#874E56" font-family="'CenturyGothic'" font-size="14">The likelihood of death increases by </tspan><tspan x="246.045" y="0" fill="#8E1B24" font-family="'CenturyGothic-Bold'" font-size="14">10% </tspan><tspan x="-31.862" y="16" fill="#874E56" font-family="'CenturyGothic'" font-size="14">every minute that passes without treatment...</tspan></text>
		</g>
		<g>
			<circle fill="#8E1B24" stroke="#FFFFFF" stroke-miterlimit="10" cx="474.36" cy="712.689" r="38.59"/>
			<g>
				
					<circle fill="none" stroke="#FFFFFF" stroke-width="3" stroke-linecap="round" stroke-miterlimit="10" stroke-dasharray="0,16.9485" cx="474.36" cy="712.689" r="32.377"/>
			</g>
			<g>
				<line fill="none" stroke="#FFFFFF" stroke-miterlimit="10" x1="474.358" y1="712.689" x2="474.358" y2="691.036"/>
				<line fill="none" stroke="#FFFFFF" stroke-miterlimit="10" x1="474.358" y1="712.689" x2="480.7" y2="702.082"/>
			</g>
		</g>
	</g>
</g>
<g id="text:_With_save..">
	<g>
		<path fill="#A8A7A7" d="M297.638,1028.177c0,0,54.553-56.772,123.57-56.772c0,0,145.834,2.226,145.834,171.435
			c0,0,10.021,81.272-123.566,212.633c0,0-82.383,76.815-145.838,105.754c-63.449-28.938-145.835-105.754-145.835-105.754
			c-133.591-131.36-123.564-212.633-123.564-212.633c0-169.209,145.828-171.435,145.828-171.435
			C243.091,971.404,297.638,1028.177,297.638,1028.177z"/>
		<rect x="61.404" y="1111.813" fill="none" width="472.472" height="209.003"/>
		<text transform="matrix(1 0 0 1 202.7271 1124.917)"><tspan x="0" y="0" fill="#874E56" font-family="'ArialRoundedMTBold'" font-size="18">With ‘Save the Heart’, </tspan><tspan x="-71.824" y="26" fill="#874E56" font-family="'ArialRoundedMTBold'" font-size="18">I want to decrease the time it takes for </tspan><tspan x="-128.562" y="52" fill="#874E56" font-family="'ArialRoundedMTBold'" font-size="18">an affected person to get medical care. This can be </tspan><tspan x="-123.469" y="78" fill="#874E56" font-family="'ArialRoundedMTBold'" font-size="18">done by implementing already existing technology </tspan><tspan x="-72.189" y="104" fill="#874E56" font-family="'ArialRoundedMTBold'" font-size="18">into the heart starters to automatically </tspan><tspan x="-26.908" y="130" fill="#874E56" font-family="'ArialRoundedMTBold'" font-size="18">contact medical personnel..</tspan><tspan x="24.855" y="182" fill="#874E56" font-family="'ArialRoundedMTBold'" font-size="18">..this is my</tspan><tspan x="117.317" y="182" fill="#4C3D3D" font-family="'ArialRoundedMTBold'" font-size="18"> </tspan><tspan x="121.817" y="182" fill="#8E1B24" font-family="'ArialRoundedMTBold'" font-size="18">idea</tspan><tspan x="159.337" y="182" fill="#4C3D3D" font-family="'ArialRoundedMTBold'" font-size="18">.</tspan></text>
	</g>
</g>
<g id="My_idea">
	<g>
		<rect x="158.671" y="2628.468" fill="none" width="277.937" height="85.064"/>
		<text transform="matrix(1 0 0 1 158.6714 2638.7715)"><tspan x="0" y="0" fill="#874E56" font-family="'CenturyGothic'" font-size="14">When the ambulance arrives a few min</tspan><tspan x="267.313" y="0" fill="#874E56" font-family="'CenturyGothic'" font-size="14">-</tspan><tspan x="0" y="16" fill="#874E56" font-family="'CenturyGothic'" font-size="14">utes later, the ambulance personnel </tspan><tspan x="0" y="32" fill="#874E56" font-family="'CenturyGothic'" font-size="14">take over and give Dave professional </tspan><tspan x="0" y="48" fill="#874E56" font-family="'CenturyGothic'" font-size="14">medical care and brings him back to </tspan><tspan x="0" y="64" fill="#874E56" font-family="'CenturyGothic'" font-size="14">the hospital.</tspan></text>
	</g>
	<g>
		<rect x="46.542" y="1625.404" fill="none" width="190.378" height="83.596"/>
		<text transform="matrix(1 0 0 1 46.5415 1635.708)"><tspan x="0" y="0" fill="#874E56" font-family="'CenturyGothic'" font-size="14">Let’s say John is out walking </tspan><tspan x="0" y="16" fill="#874E56" font-family="'CenturyGothic'" font-size="14">when he sees Dave, a man </tspan><tspan x="0" y="32" fill="#874E56" font-family="'CenturyGothic'" font-size="14">just affected by a heart </tspan><tspan x="0" y="48" fill="#874E56" font-family="'CenturyGothic'" font-size="14">failure.</tspan></text>
	</g>
	<g>
		<rect x="336.018" y="1625.404" fill="none" width="190.692" height="61.596"/>
		<text transform="matrix(1 0 0 1 336.0176 1635.708)"><tspan x="0" y="0" fill="#874E56" font-family="'CenturyGothic'" font-size="14">John sees a heart starter </tspan><tspan x="0" y="16" fill="#874E56" font-family="'CenturyGothic'" font-size="14">nearby and rushes to it and </tspan><tspan x="0" y="32" fill="#874E56" font-family="'CenturyGothic'" font-size="14">removes it from the wall it’s </tspan><tspan x="0" y="48" fill="#874E56" font-family="'CenturyGothic'" font-size="14">hanging on.</tspan></text>
	</g>
	<g>
		<g>
			<path fill="#FFFFFF" d="M430.71,1494.879c-53.02,0-96,47.905-96,107c0,5.262,0.348,10.434,1.006,15.492h189.988
				c0.658-5.059,1.006-10.23,1.006-15.492C526.71,1542.784,483.729,1494.879,430.71,1494.879z"/>
			<path fill="#F4F4F4" d="M430.71,1494.879c-53.02,0-96,47.905-96,107c0,5.262,0.348,10.434,1.006,15.492h189.989
				c0.658-5.059,1.005-10.23,1.005-15.492C526.71,1542.784,483.729,1494.879,430.71,1494.879z M523.761,1616.95H338.157
				c-0.643-4.659-0.981-9.422-0.981-14.268c0-54.423,41.988-98.541,93.783-98.541c51.797,0,93.785,44.118,93.785,98.541
				C524.744,1607.528,524.404,1612.291,523.761,1616.95z"/>
		</g>
		<g>
			<path d="M480.412,1575.24c1.442,3.548-0.265,7.594-3.812,9.036l0,0c-3.547,1.442-7.592-0.265-9.034-3.812l-8.326-20.471
				c-1.442-3.548,0.263-7.594,3.812-9.036l0,0c3.547-1.442,7.593,0.265,9.035,3.811L480.412,1575.24z"/>
			<path d="M455.025,1584.227c-1.384-0.039-2.473-1.393-2.424-3.018l0,0c0.049-1.626,1.217-2.91,2.603-2.871l18.244,0.548
				c1.388,0.043,2.475,1.395,2.427,3.021l0,0c-0.048,1.623-1.216,2.91-2.604,2.867L455.025,1584.227z"/>
			<path d="M487.26,1592.991c0.524,1.332-0.279,2.891-1.794,3.487l0,0c-1.515,0.595-3.166-0.005-3.69-1.336l-6.869-17.512
				c-0.523-1.332,0.281-2.895,1.796-3.489l0,0c1.514-0.595,3.165,0.002,3.687,1.337L487.26,1592.991z"/>
			<path fill="none" stroke="#FFFFFF" stroke-miterlimit="10" d="M475.205,1579.487c-0.293,0.339-1.294-0.041-2.234-0.851l0,0
				c-0.941-0.81-1.466-1.742-1.174-2.081l6.235-7.25c0.293-0.34,1.294,0.041,2.234,0.85l0,0c0.941,0.811,1.466,1.741,1.174,2.081
				L475.205,1579.487z"/>
			<circle cx="457.213" cy="1540.911" r="9.534"/>
			<path d="M452.129,1574.717c-0.644,0.596-1.85,0.341-2.692-0.572l0,0c-0.842-0.909-1.002-2.131-0.359-2.728l13.753-12.714
				c0.642-0.594,1.849-0.34,2.69,0.571l0,0c0.843,0.912,1.004,2.133,0.359,2.729L452.129,1574.717z"/>
			<path d="M486.452,1563.483c0.685,0.489,0.655,1.705-0.067,2.715l0,0c-0.721,1.009-1.862,1.431-2.548,0.942l-14.62-10.451
				c-0.685-0.488-0.653-1.704,0.067-2.713l0,0c0.722-1.012,1.863-1.433,2.547-0.943L486.452,1563.483z"/>
			<path d="M434.902,1570.677c-0.727-0.226-1.018-1.37-0.649-2.557l0,0c0.366-1.185,1.253-1.961,1.98-1.736l15.513,4.804
				c0.727,0.228,1.02,1.37,0.653,2.556l0,0c-0.368,1.187-1.256,1.967-1.981,1.739L434.902,1570.677z"/>
			<path d="M475.637,1578.824c-0.53,0.616-1.726,0.461-2.666-0.349l0,0c-0.941-0.81-1.271-1.966-0.743-2.583l11.331-13.171
				c0.531-0.616,1.725-0.461,2.665,0.348l0,0c0.942,0.811,1.272,1.967,0.742,2.584L475.637,1578.824z"/>
			<path d="M461.517,1599.043c0.273,1.406-0.801,2.796-2.398,3.105l0,0c-1.596,0.309-3.11-0.578-3.385-1.984l-3.58-18.464
				c-0.274-1.406,0.801-2.795,2.398-3.104l0,0c1.595-0.312,3.111,0.576,3.385,1.984L461.517,1599.043z"/>
			<path d="M502.276,1590.943c1.411,0.035,2.521,1.385,2.478,3.011l0,0c-0.044,1.626-1.224,2.915-2.635,2.879l-18.556-0.498
				c-1.412-0.038-2.522-1.388-2.479-3.015l0,0c0.043-1.626,1.224-2.912,2.636-2.877L502.276,1590.943z"/>
		</g>
		<g>
			<path fill="#8E1B24" d="M410.066,1583.93c0,5.066-4.107,9.175-9.175,9.175h-32.113c-5.067,0-9.176-4.108-9.176-9.175v-25.997
				c0-5.066,4.108-9.176,9.176-9.176h32.113c5.067,0,9.175,4.109,9.175,9.176V1583.93z"/>
			<path fill="#FFFFFF" d="M384.834,1558.049c0,0,3.736-3.888,8.462-3.888c0,0,9.985,0.153,9.985,11.738
				c0,0,0.687,5.565-8.461,14.56c0,0-5.641,5.262-9.986,7.241c-4.343-1.979-9.985-7.241-9.985-7.241
				c-9.146-8.994-8.459-14.56-8.459-14.56c0-11.585,9.984-11.738,9.984-11.738C381.101,1554.161,384.834,1558.049,384.834,1558.049z
				"/>
			<polygon fill="#8E1B24" points="388.894,1559.363 378.585,1571.946 384.755,1571.946 380.451,1582.5 391.086,1569.511 
				385.403,1569.267 			"/>
		</g>
	</g>
	<path fill="#8E1B24" d="M257.027,1585.689c0,0,1.378-1.435,3.122-1.435c0,0,3.685,0.057,3.685,4.331c0,0,0.253,2.054-3.122,5.372
		c0,0-2.082,1.941-3.685,2.673c-1.603-0.731-3.685-2.673-3.685-2.673c-3.375-3.318-3.122-5.372-3.122-5.372
		c0-4.274,3.685-4.331,3.685-4.331C255.649,1584.255,257.027,1585.689,257.027,1585.689z"/>
	<path fill="#8E1B24" d="M277.469,1585.689c0,0,1.378-1.435,3.122-1.435c0,0,3.685,0.057,3.685,4.331c0,0,0.253,2.054-3.122,5.372
		c0,0-2.082,1.941-3.685,2.673c-1.603-0.731-3.685-2.673-3.685-2.673c-3.375-3.318-3.122-5.372-3.122-5.372
		c0-4.274,3.685-4.331,3.685-4.331C276.091,1584.255,277.469,1585.689,277.469,1585.689z"/>
	<path fill="#8E1B24" d="M297.91,1585.689c0,0,1.378-1.435,3.122-1.435c0,0,3.685,0.057,3.685,4.331c0,0,0.253,2.054-3.122,5.372
		c0,0-2.082,1.941-3.685,2.673c-1.603-0.731-3.685-2.673-3.685-2.673c-3.375-3.318-3.122-5.372-3.122-5.372
		c0-4.274,3.685-4.331,3.685-4.331C296.532,1584.255,297.91,1585.689,297.91,1585.689z"/>
	<path fill="#8E1B24" d="M318.352,1585.689c0,0,1.378-1.435,3.122-1.435c0,0,3.685,0.057,3.685,4.331c0,0,0.253,2.054-3.122,5.372
		c0,0-2.082,1.941-3.685,2.673c-1.603-0.731-3.685-2.673-3.685-2.673c-3.375-3.318-3.122-5.372-3.122-5.372
		c0-4.274,3.685-4.331,3.685-4.331C316.974,1584.255,318.352,1585.689,318.352,1585.689z"/>
	<path fill="#8E1B24" d="M411.722,1735.175c0,0,1.378-1.435,3.122-1.435c0,0,3.685,0.057,3.685,4.331c0,0,0.253,2.054-3.122,5.372
		c0,0-2.081,1.941-3.685,2.673c-1.604-0.731-3.685-2.673-3.685-2.673c-3.376-3.318-3.122-5.372-3.122-5.372
		c0-4.274,3.685-4.331,3.685-4.331C410.344,1733.74,411.722,1735.175,411.722,1735.175z"/>
	<path fill="#8E1B24" d="M433.929,1735.175c0,0,1.377-1.435,3.121-1.435c0,0,3.686,0.057,3.686,4.331c0,0,0.252,2.054-3.123,5.372
		c0,0-2.082,1.941-3.684,2.673c-1.604-0.731-3.686-2.673-3.686-2.673c-3.375-3.318-3.121-5.372-3.121-5.372
		c0-4.274,3.684-4.331,3.684-4.331C432.55,1733.74,433.929,1735.175,433.929,1735.175z"/>
	<path fill="#8E1B24" d="M433.929,1715.324c0,0,1.378-1.436,3.122-1.436c0,0,3.685,0.057,3.685,4.332c0,0,0.253,2.053-3.122,5.371
		c0,0-2.082,1.941-3.685,2.674c-1.603-0.732-3.685-2.674-3.685-2.674c-3.375-3.318-3.122-5.371-3.122-5.371
		c0-4.275,3.685-4.332,3.685-4.332C432.551,1713.889,433.929,1715.324,433.929,1715.324z"/>
	<path fill="#8E1B24" d="M433.929,1695.069c0,0,1.378-1.435,3.122-1.435c0,0,3.685,0.057,3.685,4.331c0,0,0.253,2.054-3.122,5.372
		c0,0-2.082,1.941-3.685,2.673c-1.603-0.731-3.685-2.673-3.685-2.673c-3.375-3.318-3.122-5.372-3.122-5.372
		c0-4.274,3.685-4.331,3.685-4.331C432.551,1693.635,433.929,1695.069,433.929,1695.069z"/>
	<path fill="#8E1B24" d="M345.101,1735.175c0,0,1.378-1.435,3.122-1.435c0,0,3.685,0.057,3.685,4.331c0,0,0.253,2.054-3.122,5.372
		c0,0-2.081,1.941-3.685,2.673c-1.604-0.731-3.685-2.673-3.685-2.673c-3.376-3.318-3.122-5.372-3.122-5.372
		c0-4.274,3.685-4.331,3.685-4.331C343.723,1733.74,345.101,1735.175,345.101,1735.175z"/>
	<path fill="#8E1B24" d="M367.308,1735.175c0,0,1.378-1.435,3.122-1.435c0,0,3.685,0.057,3.685,4.331c0,0,0.253,2.054-3.122,5.372
		c0,0-2.082,1.941-3.685,2.673c-1.603-0.731-3.685-2.673-3.685-2.673c-3.375-3.318-3.122-5.372-3.122-5.372
		c0-4.274,3.685-4.331,3.685-4.331C365.93,1733.74,367.308,1735.175,367.308,1735.175z"/>
	<path fill="#8E1B24" d="M389.515,1735.175c0,0,1.379-1.435,3.123-1.435c0,0,3.684,0.057,3.684,4.331c0,0,0.254,2.054-3.121,5.372
		c0,0-2.082,1.941-3.686,2.673c-1.602-0.731-3.684-2.673-3.684-2.673c-3.375-3.318-3.123-5.372-3.123-5.372
		c0-4.274,3.686-4.331,3.686-4.331C388.138,1733.74,389.515,1735.175,389.515,1735.175z"/>
	<path fill="#8E1B24" d="M300.82,1821.049c0,0,1.378-1.435,3.122-1.435c0,0,3.685,0.057,3.685,4.331c0,0,0.253,2.054-3.122,5.372
		c0,0-2.081,1.941-3.685,2.673c-1.604-0.731-3.685-2.673-3.685-2.673c-3.376-3.318-3.122-5.372-3.122-5.372
		c0-4.274,3.685-4.331,3.685-4.331C299.442,1819.614,300.82,1821.049,300.82,1821.049z"/>
	<path fill="#8E1B24" d="M300.82,1735.175c0,0,1.377-1.435,3.121-1.435c0,0,3.686,0.057,3.686,4.331c0,0,0.252,2.054-3.123,5.372
		c0,0-2.082,1.941-3.684,2.673c-1.603-0.731-3.685-2.673-3.685-2.673c-3.375-3.318-3.122-5.372-3.122-5.372
		c0-4.274,3.685-4.331,3.685-4.331C299.442,1733.74,300.82,1735.175,300.82,1735.175z"/>
	<path fill="#8E1B24" d="M322.894,1735.175c0,0,1.378-1.435,3.122-1.435c0,0,3.685,0.057,3.685,4.331c0,0,0.253,2.054-3.122,5.372
		c0,0-2.082,1.941-3.685,2.673c-1.603-0.731-3.685-2.673-3.685-2.673c-3.375-3.318-3.122-5.372-3.122-5.372
		c0-4.274,3.685-4.331,3.685-4.331C321.516,1733.74,322.894,1735.175,322.894,1735.175z"/>
	<path fill="#8E1B24" d="M300.82,1778.112c0,0,1.377-1.436,3.121-1.436c0,0,3.686,0.057,3.686,4.332c0,0,0.252,2.053-3.123,5.371
		c0,0-2.08,1.941-3.684,2.674c-1.604-0.732-3.686-2.674-3.686-2.674c-3.375-3.318-3.121-5.371-3.121-5.371
		c0-4.275,3.684-4.332,3.684-4.332C299.441,1776.677,300.82,1778.112,300.82,1778.112z"/>
	<path fill="#8E1B24" d="M300.82,1756.644c0,0,1.378-1.435,3.122-1.435c0,0,3.685,0.057,3.685,4.331c0,0,0.253,2.054-3.122,5.372
		c0,0-2.082,1.941-3.685,2.673c-1.603-0.731-3.685-2.673-3.685-2.673c-3.375-3.318-3.122-5.372-3.122-5.372
		c0-4.274,3.685-4.331,3.685-4.331C299.442,1755.209,300.82,1756.644,300.82,1756.644z"/>
	<path fill="#8E1B24" d="M300.82,1799.58c0,0,1.378-1.435,3.122-1.435c0,0,3.685,0.057,3.685,4.331c0,0,0.253,2.054-3.122,5.372
		c0,0-2.082,1.941-3.685,2.673c-1.603-0.731-3.685-2.673-3.685-2.673c-3.375-3.318-3.122-5.372-3.122-5.372
		c0-4.274,3.685-4.331,3.685-4.331C299.442,1798.146,300.82,1799.58,300.82,1799.58z"/>
	<g>
		<rect x="114.125" y="1962.535" fill="none" width="367.031" height="45.5"/>
		<text transform="matrix(1 0 0 1 114.1245 1972.8389)"><tspan x="0" y="0" fill="#874E56" font-family="'CenturyGothic'" font-size="14">As the heart starter is removed from the wall, a sensor </tspan><tspan x="0" y="16" fill="#874E56" font-family="'CenturyGothic'" font-size="14">notice the heart starter is being used and activates </tspan><tspan x="0" y="32" fill="#874E56" font-family="'CenturyGothic'" font-size="14">an alarm which is send to the nearest SOS central.</tspan></text>
	</g>
	<g>
		<rect x="115.621" y="2250.79" fill="none" width="364.983" height="93.21"/>
		<text transform="matrix(1 0 0 1 115.6206 2261.0938)"><tspan x="0" y="0" fill="#874E56" font-family="'CenturyGothic'" font-size="14">As there is a build in microphone and speaker onto </tspan><tspan x="0" y="16" fill="#874E56" font-family="'CenturyGothic'" font-size="14">the heart starter, the SOS central can easily keep </tspan><tspan x="0" y="32" fill="#874E56" font-family="'CenturyGothic'" font-size="14">contact and get information about the situation as </tspan><tspan x="0" y="48" fill="#874E56" font-family="'CenturyGothic'" font-size="14">well as to give instructions to John on how to help </tspan><tspan x="0" y="64" fill="#874E56" font-family="'CenturyGothic'" font-size="14">Dave in the best way possible. This happens at the </tspan><tspan x="0" y="80" fill="#874E56" font-family="'CenturyGothic'" font-size="14">same time as an ambulance is rushed to the location.</tspan></text>
	</g>
	<path fill="#8E1B24" d="M298.209,2022.618c0,0,1.376-1.435,3.121-1.435c0,0,3.686,0.057,3.686,4.331c0,0,0.252,2.054-3.123,5.372
		c0,0-2.082,1.941-3.683,2.673c-1.603-0.731-3.685-2.673-3.685-2.673c-3.375-3.318-3.122-5.372-3.122-5.372
		c0-4.274,3.685-4.331,3.685-4.331C296.832,2021.184,298.209,2022.618,298.209,2022.618z"/>
	<path fill="#8E1B24" d="M298.209,2063.535c0,0,1.376-1.436,3.121-1.436c0,0,3.686,0.057,3.686,4.332c0,0,0.252,2.053-3.123,5.371
		c0,0-2.08,1.941-3.683,2.674c-1.604-0.732-3.686-2.674-3.686-2.674c-3.375-3.318-3.121-5.371-3.121-5.371
		c0-4.275,3.684-4.332,3.684-4.332C296.831,2062.1,298.209,2063.535,298.209,2063.535z"/>
	<path fill="#8E1B24" d="M298.209,2043.076c0,0,1.378-1.435,3.123-1.435c0,0,3.684,0.057,3.684,4.331c0,0,0.254,2.054-3.121,5.372
		c0,0-2.082,1.941-3.685,2.673c-1.603-0.731-3.685-2.673-3.685-2.673c-3.375-3.318-3.122-5.372-3.122-5.372
		c0-4.274,3.685-4.331,3.685-4.331C296.832,2041.642,298.209,2043.076,298.209,2043.076z"/>
	<path fill="#8E1B24" d="M298.209,2083.993c0,0,1.378-1.435,3.123-1.435c0,0,3.684,0.057,3.684,4.331c0,0,0.254,2.054-3.121,5.372
		c0,0-2.082,1.941-3.685,2.673c-1.603-0.731-3.685-2.673-3.685-2.673c-3.375-3.318-3.122-5.372-3.122-5.372
		c0-4.274,3.685-4.331,3.685-4.331C296.832,2082.559,298.209,2083.993,298.209,2083.993z"/>
	<path fill="#8E1B24" d="M298.21,2363.247c0,0,1.377-1.435,3.121-1.435c0,0,3.686,0.057,3.686,4.331c0,0,0.252,2.054-3.123,5.372
		c0,0-2.082,1.941-3.684,2.673c-1.602-0.731-3.684-2.673-3.684-2.673c-3.375-3.318-3.123-5.372-3.123-5.372
		c0-4.274,3.686-4.331,3.686-4.331C296.833,2361.813,298.21,2363.247,298.21,2363.247z"/>
	<path fill="#8E1B24" d="M298.21,2404.164c0,0,1.377-1.436,3.121-1.436c0,0,3.686,0.057,3.686,4.332c0,0,0.252,2.053-3.123,5.371
		c0,0-2.08,1.941-3.684,2.674c-1.604-0.732-3.686-2.674-3.686-2.674c-3.375-3.318-3.121-5.371-3.121-5.371
		c0-4.275,3.684-4.332,3.684-4.332C296.831,2402.729,298.21,2404.164,298.21,2404.164z"/>
	<path fill="#8E1B24" d="M298.21,2383.705c0,0,1.379-1.435,3.123-1.435c0,0,3.684,0.057,3.684,4.331c0,0,0.254,2.054-3.121,5.372
		c0,0-2.082,1.941-3.686,2.673c-1.602-0.731-3.684-2.673-3.684-2.673c-3.375-3.318-3.123-5.372-3.123-5.372
		c0-4.274,3.686-4.331,3.686-4.331C296.833,2382.271,298.21,2383.705,298.21,2383.705z"/>
	<path fill="#8E1B24" d="M298.21,2424.622c0,0,1.379-1.435,3.123-1.435c0,0,3.684,0.057,3.684,4.331c0,0,0.254,2.054-3.121,5.372
		c0,0-2.082,1.941-3.686,2.673c-1.602-0.731-3.684-2.673-3.684-2.673c-3.375-3.318-3.123-5.372-3.123-5.372
		c0-4.274,3.686-4.331,3.686-4.331C296.833,2423.188,298.21,2424.622,298.21,2424.622z"/>
	<g>
		<g>
			<path fill="#FFFFFF" d="M141.304,1494.475c-53.02,0-96,47.905-96,107c0,5.262,0.347,10.434,1.005,15.492h189.989
				c0.658-5.059,1.005-10.23,1.005-15.492C237.304,1542.38,194.323,1494.475,141.304,1494.475z"/>
			<path fill="#F4F4F4" d="M141.304,1494.475c-53.02,0-96,47.905-96,107c0,5.262,0.348,10.434,1.006,15.492h189.989
				c0.658-5.059,1.005-10.23,1.005-15.492C237.304,1542.38,194.323,1494.475,141.304,1494.475z M234.355,1616.546H48.751
				c-0.644-4.659-0.982-9.422-0.982-14.268c0-54.423,41.988-98.541,93.783-98.541c51.797,0,93.785,44.118,93.785,98.541
				C235.338,1607.124,234.998,1611.887,234.355,1616.546z"/>
		</g>
		<g>
			<circle cx="174.293" cy="1537.563" r="7.919"/>
			<path d="M180.052,1571.196c0,3.181-2.579,5.76-5.76,5.76l0,0c-3.181,0-5.759-2.579-5.759-5.76v-18.355
				c0-3.181,2.579-5.76,5.759-5.76l0,0c3.181,0,5.76,2.579,5.76,5.76V1571.196z"/>
			<path d="M167.549,1566.653c0,0.817-0.835,1.48-1.867,1.48l0,0c-1.031,0-1.866-0.663-1.866-1.48v-17.452
				c0-0.817,0.835-1.48,1.866-1.48l0,0c1.031,0,1.867,0.663,1.867,1.48V1566.653z"/>
			<path d="M184.769,1566.653c0,0.817-0.836,1.48-1.867,1.48l0,0c-1.031,0-1.866-0.663-1.866-1.48v-17.452
				c0-0.817,0.835-1.48,1.866-1.48l0,0c1.031,0,1.867,0.663,1.867,1.48V1566.653z"/>
			<path d="M173.426,1585.836c0,1.351-1.095,2.446-2.446,2.446l0,0c-1.352,0-2.447-1.096-2.447-2.446v-17.76
				c0-1.352,1.095-2.447,2.447-2.447l0,0c1.351,0,2.446,1.096,2.446,2.447V1585.836z"/>
			<path d="M180.052,1585.836c0,1.351-1.095,2.446-2.446,2.446l0,0c-1.352,0-2.447-1.096-2.447-2.446v-17.76
				c0-1.352,1.095-2.447,2.447-2.447l0,0c1.351,0,2.446,1.096,2.446,2.447V1585.836z"/>
		</g>
		<circle fill="#FFFFFF" cx="163.817" cy="1593.58" r="12.375"/>
		<rect x="102.42" y="1590.434" width="39.311" height="18.249"/>
		<g>
			<g>
				<path d="M105.956,1594.127c-5.338-4.819-10.676-9.639-16.014-14.457c-4.772-4.309-11.867,2.741-7.071,7.07
					c5.338,4.819,10.676,9.639,16.014,14.457C103.657,1605.506,110.751,1598.456,105.956,1594.127L105.956,1594.127z"/>
			</g>
		</g>
		<g>
			<g>
				<path d="M102.421,1598.764c-10.03,0-20.06,0-30.089,0c-6.449,0-6.449,10,0,10c10.03,0,20.06,0,30.089,0
					C108.87,1608.764,108.87,1598.764,102.421,1598.764L102.421,1598.764z"/>
			</g>
		</g>
		<path d="M141.304,1608.689c4.77-0.001,8.638-4.087,8.638-9.128s-3.868-9.128-8.638-9.128V1608.689z"/>
		<circle cx="163.817" cy="1595.58" r="12.375"/>
		<g>
			<g>
				<path d="M82.089,1581.046c-3.431,4.576-6.862,9.152-10.292,13.729c-1.639,2.186-0.356,5.582,1.794,6.841
					c2.555,1.496,5.209,0.382,6.841-1.794c3.431-4.576,6.862-9.152,10.292-13.729c1.639-2.186,0.356-5.582-1.794-6.841
					C86.375,1577.756,83.72,1578.87,82.089,1581.046L82.089,1581.046z"/>
			</g>
		</g>
		<rect x="115.075" y="1510.242" fill="none" width="33.64" height="14"/>
		<text transform="matrix(1 0 0 1 115.0752 1520.5459)" fill="#874E56" font-family="'CenturyGothic'" font-size="14">John</text>
		<rect x="101.325" y="1548.721" fill="none" width="37" height="14"/>
		<text transform="matrix(1 0 0 1 101.3247 1559.0244)" fill="#874E56" font-family="'CenturyGothic'" font-size="14">Dave</text>
		<polygon fill="#8E1B24" points="118.564,1574.696 113.048,1574.696 112.947,1574.798 119.825,1581.676 126.703,1574.798 
			126.602,1574.696 121.085,1574.696 121.085,1562.998 118.564,1562.998 		"/>
		<polygon fill="#8E1B24" points="158.213,1530.926 154.313,1534.826 154.313,1534.97 164.04,1534.97 164.04,1525.242 
			163.896,1525.242 159.996,1529.143 151.724,1520.871 149.941,1522.654 		"/>
		<g>
			<path fill="#FFFFFF" d="M146.991,1601.725c0,1.318-0.983,2.389-2.195,2.389h-31.569c-1.212,0-2.194-1.07-2.194-2.389l0,0
				c0-1.32,0.982-2.389,2.194-2.389h31.569C146.008,1599.336,146.991,1600.404,146.991,1601.725L146.991,1601.725z"/>
			<path d="M146.396,1601.725c0,1.068-0.951,1.936-2.123,1.936H113.75c-1.172,0-2.122-0.867-2.122-1.936l0,0
				c0-1.07,0.95-1.938,2.122-1.938h30.524C145.446,1599.787,146.396,1600.654,146.396,1601.725L146.396,1601.725z"/>
		</g>
	</g>
	<g>
		<g>
			<path fill="#FFFFFF" d="M385.262,1831.465c-53.02,0-96,47.905-96,107c0,5.262,0.347,10.434,1.005,15.492h189.99
				c0.658-5.059,1.004-10.23,1.004-15.492C481.261,1879.37,438.28,1831.465,385.262,1831.465z"/>
			<path fill="#F4F4F4" d="M385.262,1831.465c-53.02,0-96,47.905-96,107c0,5.262,0.348,10.434,1.006,15.492h189.989
				c0.658-5.059,1.004-10.23,1.004-15.492C481.261,1879.37,438.28,1831.465,385.262,1831.465z M478.313,1953.536H292.71
				c-0.645-4.659-0.982-9.422-0.982-14.268c0-54.423,41.988-98.541,93.783-98.541c51.797,0,93.785,44.118,93.785,98.541
				C479.296,1944.114,478.956,1948.877,478.313,1953.536z"/>
		</g>
		<g>
			<path fill="#FFFFFF" d="M210.02,1831.465c-53.02,0-96,47.905-96,107c0,5.262,0.347,10.434,1.005,15.492h189.99
				c0.658-5.059,1.004-10.23,1.004-15.492C306.019,1879.37,263.038,1831.465,210.02,1831.465z"/>
			<path fill="#F4F4F4" d="M210.02,1831.465c-53.02,0-96,47.905-96,107c0,5.262,0.348,10.434,1.006,15.492h189.989
				c0.658-5.059,1.004-10.23,1.004-15.492C306.019,1879.37,263.038,1831.465,210.02,1831.465z M303.071,1953.536H117.468
				c-0.645-4.659-0.982-9.422-0.982-14.268c0-54.423,41.988-98.541,93.783-98.541c51.797,0,93.785,44.118,93.785,98.541
				C304.054,1944.114,303.714,1948.877,303.071,1953.536z"/>
		</g>
		<circle fill="#FFFFFF" cx="242.767" cy="1932.762" r="12.375"/>
		<rect x="181.37" y="1929.615" width="39.311" height="18.249"/>
		<g>
			<g>
				<path d="M184.906,1933.309c-5.338-4.819-10.676-9.639-16.014-14.457c-4.772-4.309-11.867,2.741-7.071,7.07
					c5.338,4.819,10.676,9.639,16.014,14.457C182.607,1944.688,189.702,1937.638,184.906,1933.309L184.906,1933.309z"/>
			</g>
		</g>
		<g>
			<g>
				<path d="M181.371,1937.945c-10.03,0-20.059,0-30.089,0c-6.449,0-6.449,10,0,10c10.03,0,20.059,0,30.089,0
					C187.82,1947.945,187.82,1937.945,181.371,1937.945L181.371,1937.945z"/>
			</g>
		</g>
		<path d="M220.254,1947.871c4.77-0.001,8.638-4.087,8.638-9.128s-3.868-9.128-8.638-9.128V1947.871z"/>
		<circle cx="242.767" cy="1934.762" r="12.375"/>
		<g>
			<g>
				<path d="M161.039,1920.228c-3.431,4.576-6.862,9.152-10.293,13.729c-1.639,2.186-0.356,5.582,1.794,6.841
					c2.555,1.496,5.209,0.382,6.841-1.794c3.431-4.576,6.862-9.152,10.293-13.729c1.639-2.186,0.356-5.582-1.794-6.841
					C165.325,1916.938,162.67,1918.052,161.039,1920.228L161.039,1920.228z"/>
			</g>
		</g>
		<polygon fill="#8E1B24" points="309.1,1844.614 266.24,1896.935 291.896,1896.935 273.999,1940.808 318.214,1886.806 
			294.591,1885.798 		"/>
		<g>
			<circle cx="201.025" cy="1892.711" r="13.287"/>
			<path d="M210.688,1935.45c0,3.531-4.326,6.394-9.663,6.394l0,0c-5.338,0-9.663-2.862-9.663-6.394v-20.375
				c0-3.53,4.325-6.394,9.663-6.394l0,0c5.337,0,9.663,2.863,9.663,6.394V1935.45z"/>
			<path fill="#8E1B24" d="M216.683,1925.824c0,2.374-1.421,4.299-3.173,4.299h-24.968c-1.753,0-3.173-1.925-3.173-4.299l0,0
				c0-2.373,1.42-4.297,3.173-4.297h24.968C215.262,1921.527,216.683,1923.451,216.683,1925.824L216.683,1925.824z"/>
			
				<line fill="none" stroke="#000000" stroke-width="4" stroke-linecap="round" stroke-miterlimit="10" x1="212.114" y1="1924.349" x2="214.587" y2="1917.813"/>
			
				<line fill="none" stroke="#000000" stroke-width="4" stroke-linecap="round" stroke-miterlimit="10" x1="191.611" y1="1925.167" x2="186.887" y2="1920.019"/>
		</g>
		<g>
			<g>
				<g>
					<path fill="#8E1B24" d="M369.322,1903.699c5.604,5.551,8.669,12.72,8.761,20.61c0.037,3.222,5.037,3.226,5,0
						c-0.106-9.181-3.701-17.683-10.226-24.146C370.565,1897.894,367.029,1901.428,369.322,1903.699L369.322,1903.699z"/>
				</g>
			</g>
			<g>
				<g>
					<path fill="#8E1B24" d="M376.667,1896.399c7.439,7.317,11.552,16.951,11.636,27.392c0.026,3.223,5.026,3.226,5,0
						c-0.095-11.723-4.741-22.704-13.101-30.927C377.902,1890.603,374.365,1894.136,376.667,1896.399L376.667,1896.399z"/>
				</g>
			</g>
			<g>
				<g>
					<path fill="#8E1B24" d="M384.161,1889.453c9.082,8.874,14.15,20.764,14.212,33.466c0.016,3.224,5.016,3.225,5,0
						c-0.067-13.981-5.675-27.229-15.677-37.001C385.39,1883.664,381.852,1887.197,384.161,1889.453L384.161,1889.453z"/>
				</g>
			</g>
		</g>
		<g>
			<path fill="none" stroke="#BCBBBB" stroke-miterlimit="10" d="M358.339,1936.79c0,5.066-4.107,9.175-9.175,9.175h-32.113
				c-5.067,0-9.176-4.108-9.176-9.175v-25.997c0-5.066,4.108-9.176,9.176-9.176h32.113c5.067,0,9.175,4.109,9.175,9.176V1936.79z"/>
			<path fill="#BCBBBB" d="M333.106,1910.909c0,0,3.736-3.888,8.462-3.888c0,0,9.985,0.153,9.985,11.738
				c0,0,0.687,5.565-8.461,14.56c0,0-5.641,5.262-9.986,7.241c-4.343-1.979-9.985-7.241-9.985-7.241
				c-9.146-8.994-8.459-14.56-8.459-14.56c0-11.585,9.984-11.738,9.984-11.738C329.373,1907.021,333.106,1910.909,333.106,1910.909z
				"/>
			<polygon fill="#FFFFFF" points="337.166,1912.224 326.857,1924.807 333.027,1924.807 328.724,1935.36 339.358,1922.371 
				333.676,1922.127 			"/>
		</g>
		<g>
			<polygon fill="#FFFFFF" stroke="#000000" stroke-miterlimit="10" points="451.172,1915.827 451.172,1886.636 426.252,1886.636 
				426.252,1915.827 409.935,1915.827 409.935,1945.965 426.252,1945.965 426.548,1945.965 451.171,1945.965 451.172,1945.965 
				467.785,1945.965 467.785,1915.827 			"/>
			<rect x="434.15" y="1928.759" width="9.42" height="17.014"/>
			<polygon fill="#8E1B24" points="447.312,1898.079 441.061,1898.079 441.061,1891.828 436.662,1891.828 436.662,1898.079 
				430.41,1898.079 430.41,1902.478 436.662,1902.478 436.662,1908.729 441.061,1908.729 441.061,1902.478 447.312,1902.478 			"/>
		</g>
		<g>
			<path fill="#FFFFFF" d="M227.321,1940.131c0,1.318-0.983,2.389-2.195,2.389h-31.569c-1.212,0-2.194-1.07-2.194-2.389l0,0
				c0-1.32,0.982-2.389,2.194-2.389h31.569C226.338,1937.742,227.321,1938.811,227.321,1940.131L227.321,1940.131z"/>
			<path d="M226.726,1940.131c0,1.068-0.951,1.936-2.123,1.936h-30.524c-1.172,0-2.122-0.867-2.122-1.936l0,0
				c0-1.07,0.95-1.938,2.122-1.938h30.524C225.775,1938.193,226.726,1939.061,226.726,1940.131L226.726,1940.131z"/>
		</g>
	</g>
	<g>
		<g>
			<path fill="#FFFFFF" d="M382.717,2117.048c-53.02,0-96,47.905-96,107c0,5.262,0.347,10.434,1.005,15.492h189.989
				c0.658-5.059,1.004-10.23,1.004-15.492C478.715,2164.953,435.734,2117.048,382.717,2117.048z"/>
			<path fill="#F4F4F4" d="M382.717,2117.048c-53.02,0-96,47.905-96,107c0,5.262,0.348,10.434,1.006,15.492h189.988
				c0.658-5.059,1.004-10.23,1.004-15.492C478.715,2164.953,435.734,2117.048,382.717,2117.048z M475.768,2239.119H290.165
				c-0.645-4.659-0.982-9.422-0.982-14.268c0-54.423,41.987-98.541,93.782-98.541c51.797,0,93.785,44.118,93.785,98.541
				C476.75,2229.697,476.41,2234.46,475.768,2239.119z"/>
		</g>
		<g>
			<path fill="#FFFFFF" d="M210.677,2117.048c-53.02,0-96,47.905-96,107c0,5.262,0.347,10.434,1.005,15.492h189.99
				c0.658-5.059,1.004-10.23,1.004-15.492C306.676,2164.953,263.696,2117.048,210.677,2117.048z"/>
			<path fill="#F4F4F4" d="M210.677,2117.048c-53.02,0-96,47.905-96,107c0,5.262,0.348,10.434,1.006,15.492h189.989
				c0.658-5.059,1.004-10.23,1.004-15.492C306.676,2164.953,263.696,2117.048,210.677,2117.048z M303.729,2239.119H118.125
				c-0.645-4.659-0.982-9.422-0.982-14.268c0-54.423,41.988-98.541,93.783-98.541c51.798,0,93.785,44.118,93.785,98.541
				C304.711,2229.697,304.371,2234.46,303.729,2239.119z"/>
		</g>
		<circle fill="#FFFFFF" cx="241.085" cy="2221.451" r="12.375"/>
		<rect x="179.688" y="2218.305" width="39.311" height="18.249"/>
		<g>
			<g>
				<path d="M183.224,2221.998c-5.338-4.819-10.676-9.639-16.014-14.457c-4.772-4.309-11.867,2.74-7.071,7.07
					c5.338,4.819,10.676,9.639,16.014,14.457C180.925,2233.377,188.02,2226.328,183.224,2221.998L183.224,2221.998z"/>
			</g>
		</g>
		<g>
			<g>
				<path d="M179.689,2226.635c-10.03,0-20.059,0-30.089,0c-6.449,0-6.449,10,0,10c10.03,0,20.059,0,30.089,0
					C186.138,2236.635,186.138,2226.635,179.689,2226.635L179.689,2226.635z"/>
			</g>
		</g>
		<path d="M218.572,2236.561c4.77-0.001,8.638-4.087,8.638-9.128s-3.868-9.128-8.638-9.128V2236.561z"/>
		<circle cx="241.085" cy="2223.451" r="12.375"/>
		<g>
			<g>
				<path d="M159.357,2208.917c-3.431,4.576-6.862,9.152-10.293,13.729c-1.639,2.186-0.356,5.581,1.794,6.841
					c2.555,1.496,5.209,0.382,6.841-1.794c3.431-4.576,6.862-9.152,10.293-13.729c1.639-2.186,0.356-5.581-1.794-6.841
					C163.644,2205.627,160.989,2206.741,159.357,2208.917L159.357,2208.917z"/>
			</g>
		</g>
		<g>
			<circle cx="199.343" cy="2181.4" r="13.287"/>
			<path d="M209.007,2224.14c0,3.531-4.326,6.394-9.663,6.394l0,0c-5.338,0-9.663-2.862-9.663-6.394v-20.375
				c0-3.53,4.325-6.394,9.663-6.394l0,0c5.337,0,9.663,2.863,9.663,6.394V2224.14z"/>
			<path fill="#8E1B24" d="M215.001,2214.514c0,2.374-1.421,4.299-3.173,4.299H186.86c-1.753,0-3.173-1.925-3.173-4.299l0,0
				c0-2.373,1.42-4.297,3.173-4.297h24.968C213.58,2210.217,215.001,2212.141,215.001,2214.514L215.001,2214.514z"/>
			
				<line fill="none" stroke="#000000" stroke-width="4" stroke-linecap="round" stroke-miterlimit="10" x1="210.433" y1="2213.038" x2="212.905" y2="2206.502"/>
			
				<line fill="none" stroke="#000000" stroke-width="4" stroke-linecap="round" stroke-miterlimit="10" x1="189.93" y1="2213.856" x2="185.205" y2="2208.708"/>
		</g>
		<g>
			<circle fill="#BCBBBB" stroke="#FFFFFF" stroke-miterlimit="10" cx="258.118" cy="2140.688" r="21.565"/>
			<path fill="#BCBBBB" stroke="#FFFFFF" stroke-miterlimit="10" d="M258.118,2165.868c-14.475,0-26.209,11.734-26.209,26.209
				h52.418C284.327,2177.603,272.593,2165.868,258.118,2165.868z"/>
			<g>
				<path fill="#FFFFFF" d="M286.165,2145.975c0,1.602-1.887,2.893-4.213,2.893l0,0c-2.326,0-4.212-1.291-4.212-2.893v-12.307
					c0-1.596,1.886-2.891,4.212-2.891l0,0c2.326,0,4.213,1.295,4.213,2.891V2145.975z"/>
				<path fill="none" stroke="#FFFFFF" stroke-width="4" stroke-miterlimit="10" d="M271.631,2158.807
					c3.289,0.173,10.146-1.741,10.321-6.792v-6.94"/>
				<ellipse fill="#FFFFFF" cx="265.631" cy="2159.075" rx="7.776" ry="5.512"/>
				<g>
					<path fill="#BCBBBB" d="M285.2,2144.567c0,1.234-1.454,2.229-3.248,2.229l0,0c-1.793,0-3.247-0.995-3.247-2.229v-9.49
						c0-1.229,1.454-2.228,3.247-2.228l0,0c1.794,0,3.248,0.998,3.248,2.228V2144.567z"/>
					<path fill="none" stroke="#BCBBBB" stroke-width="3" stroke-miterlimit="10" d="M270.186,2159.067
						c3.75,0.178,11.567-1.8,11.767-7.019v-7.173"/>
					<path fill="#BCBBBB" d="M271.631,2159.076c0,2.35-2.686,4.252-6.001,4.252c-3.313,0-5.998-1.902-5.998-4.252
						c0-2.346,2.685-4.247,5.998-4.247C268.945,2154.829,271.631,2156.73,271.631,2159.076z"/>
				</g>
			</g>
		</g>
		<polygon fill="#8E1B24" points="307.418,2133.304 264.559,2185.624 290.214,2185.624 272.317,2229.497 316.531,2175.495 
			292.909,2174.487 		"/>
		<g>
			<path fill="#BCBBBB" stroke="#FFFFFF" stroke-miterlimit="10" d="M225.811,2113.495h-40.452c-3.132,0-5.67,2.538-5.67,5.669
				v18.407c0,3.131,2.538,5.669,5.67,5.669h33.803l12.319,4.82v-10.489v-0.327v-18.08
				C231.48,2116.033,228.942,2113.495,225.811,2113.495z"/>
			
				<line fill="none" stroke="#FFFFFF" stroke-width="3" stroke-miterlimit="10" x1="187.886" y1="2122.027" x2="216.386" y2="2122.027"/>
			
				<line fill="none" stroke="#FFFFFF" stroke-width="3" stroke-miterlimit="10" x1="187.886" y1="2128.611" x2="216.386" y2="2128.611"/>
			
				<line fill="none" stroke="#FFFFFF" stroke-width="3" stroke-miterlimit="10" x1="187.886" y1="2135.196" x2="216.386" y2="2135.196"/>
		</g>
		<g>
			<rect x="328.604" y="2196.229" fill="#BCBBBB" width="152" height="37.458"/>
			<g>
				<path fill="#8E1B24" stroke="#FFFFFF" stroke-miterlimit="10" d="M427.959,2156.295c0-3.22-1.988-5.829-4.439-5.829
					c-2.453,0-4.441,2.609-4.441,5.829h-5.346v14.222l-26.545,19.784h-15.068v26.697h93.918v-26.697v-34.006H427.959z"/>
				<polygon fill="#FFFFFF" points="412.82,2173.298 391.17,2189.703 412.82,2189.703 				"/>
				<circle fill="#8E1B24" stroke="#FFFFFF" stroke-miterlimit="10" cx="392.854" cy="2216.998" r="8.576"/>
				<circle fill="#8E1B24" stroke="#FFFFFF" stroke-miterlimit="10" cx="447.129" cy="2216.998" r="8.576"/>
				<g>
					<circle fill="#FFFFFF" cx="439.885" cy="2173.298" r="12.381"/>
					<polygon fill="#8E1B24" points="445.344,2171.878 441.305,2171.878 441.305,2167.84 438.463,2167.84 438.463,2171.878 
						434.426,2171.878 434.426,2174.719 438.463,2174.719 438.463,2178.757 441.305,2178.757 441.305,2174.719 445.344,2174.719 
											"/>
				</g>
			</g>
			
				<line fill="none" stroke="#FFFFFF" stroke-width="3" stroke-miterlimit="10" x1="359.104" y1="2214.979" x2="368.104" y2="2214.979"/>
			
				<line fill="none" stroke="#FFFFFF" stroke-width="3" stroke-miterlimit="10" x1="345.604" y1="2214.979" x2="354.604" y2="2214.979"/>
			
				<line fill="none" stroke="#FFFFFF" stroke-width="3" stroke-miterlimit="10" x1="332.104" y1="2214.979" x2="341.104" y2="2214.979"/>
			
				<line fill="none" stroke="#FFFFFF" stroke-width="3" stroke-miterlimit="10" x1="470.104" y1="2214.979" x2="479.104" y2="2214.979"/>
		</g>
		<g>
			<path fill="#FFFFFF" d="M225.888,2228.82c0,1.318-0.983,2.389-2.195,2.389h-31.569c-1.212,0-2.194-1.07-2.194-2.389l0,0
				c0-1.32,0.982-2.389,2.194-2.389h31.569C224.905,2226.432,225.888,2227.5,225.888,2228.82L225.888,2228.82z"/>
			<path d="M225.293,2228.82c0,1.068-0.951,1.936-2.123,1.936h-30.524c-1.172,0-2.122-0.867-2.122-1.936l0,0
				c0-1.07,0.95-1.938,2.122-1.938h30.524C224.343,2226.883,225.293,2227.75,225.293,2228.82L225.293,2228.82z"/>
		</g>
	</g>
	<g>
		<g>
			<path fill="#FFFFFF" d="M297.642,2454.443c-77.129,0-139.652,63.939-139.652,142.814c0,7.023,0.504,13.926,1.462,20.678h276.38
				c0.958-6.752,1.46-13.654,1.46-20.678C437.291,2518.383,374.768,2454.443,297.642,2454.443z"/>
			<path fill="#F4F4F4" d="M297.642,2454.443c-77.129,0-139.652,63.939-139.652,142.814c0,7.023,0.505,13.926,1.463,20.678h276.379
				c0.958-6.752,1.46-13.654,1.46-20.678C437.291,2518.383,374.768,2454.443,297.642,2454.443z M433.004,2617.373H163.005
				c-0.938-6.218-1.429-12.575-1.429-19.043c0-72.639,61.08-131.523,136.427-131.523c75.351,0,136.431,58.885,136.431,131.523
				C434.434,2604.798,433.938,2611.155,433.004,2617.373z"/>
		</g>
		<rect x="169.758" y="2575.597" fill="#BCBBBB" width="220.218" height="37.458"/>
		<g>
			<path fill="#8E1B24" stroke="#FFFFFF" stroke-miterlimit="10" d="M231.287,2535.662c0-3.22-1.988-5.829-4.439-5.829
				c-2.453,0-4.441,2.609-4.441,5.829h-5.346v14.222l-26.545,19.784h-15.068v26.697h93.918v-26.697v-34.006H231.287z"/>
			<polygon fill="#FFFFFF" points="216.148,2552.665 194.498,2569.07 216.148,2569.07 			"/>
			<circle fill="#8E1B24" stroke="#FFFFFF" stroke-miterlimit="10" cx="196.181" cy="2596.365" r="8.576"/>
			<circle fill="#8E1B24" stroke="#FFFFFF" stroke-miterlimit="10" cx="250.457" cy="2596.365" r="8.576"/>
			<g>
				<circle fill="#FFFFFF" cx="243.212" cy="2552.665" r="12.381"/>
				<polygon fill="#8E1B24" points="248.671,2551.245 244.632,2551.245 244.632,2547.207 241.791,2547.207 241.791,2551.245 
					237.753,2551.245 237.753,2554.086 241.791,2554.086 241.791,2558.124 244.632,2558.124 244.632,2554.086 248.671,2554.086 				
					"/>
			</g>
		</g>
		<rect x="304.046" y="2552.97" width="21.66" height="10.056"/>
		<g>
			<g>
				<path d="M304.047,2555.315c-5.527,0-11.054,0-16.58,0c-6.449,0-6.449,10,0,10c5.526,0,11.053,0,16.58,0
					C310.495,2565.315,310.495,2555.315,304.047,2555.315L304.047,2555.315z"/>
			</g>
		</g>
		<path d="M325.471,2563.029c2.629-0.001,4.76-2.252,4.76-5.03c0-2.777-2.131-5.029-4.76-5.029V2563.029z"/>
		<circle cx="337.876" cy="2555.806" r="6.818"/>
		<g>
			<polygon stroke="#FFFFFF" stroke-miterlimit="10" points="325.953,2599.906 329.051,2598.836 323.248,2582.024 323.248,2581.837 
				323.183,2581.836 317.975,2566.745 314.876,2567.813 319.709,2581.815 310.678,2581.766 314.876,2568.593 311.754,2567.599 
				301.984,2598.257 305.106,2599.251 309.637,2585.036 320.842,2585.1 			"/>
			<rect x="279.867" y="2562.479" stroke="#FFFFFF" stroke-miterlimit="10" width="70.988" height="6.45"/>
			<circle stroke="#FFFFFF" stroke-miterlimit="10" cx="304.045" cy="2598.032" r="4.174"/>
			<circle stroke="#FFFFFF" stroke-miterlimit="10" cx="326.883" cy="2598.032" r="4.174"/>
		</g>
		<g>
			<line fill="#FFFFFF" x1="364.041" y1="2577.581" x2="364.041" y2="2594.16"/>
			<g>
				<path fill="#8E1B24" d="M361.541,2577.581c0,5.526,0,11.053,0,16.579c0,3.225,5,3.225,5,0c0-5.526,0-11.053,0-16.579
					C366.541,2574.356,361.541,2574.356,361.541,2577.581L361.541,2577.581z"/>
			</g>
		</g>
		<path fill="#8E1B24" stroke="#FFFFFF" stroke-miterlimit="10" d="M369.072,2556.156c0-0.013-0.004-0.024-0.004-0.036v-0.199
			h-0.021c-0.133-2.517-2.313-4.524-5.006-4.524c-2.691,0-4.871,2.008-5.004,4.524h-0.025v21.66h10.057v-21.425H369.072z"/>
		<circle fill="#8E1B24" stroke="#FFFFFF" stroke-miterlimit="10" cx="364.807" cy="2542.751" r="6.818"/>
		<g>
			<g>
				
					<line fill="#8E1B24" stroke="#FFFFFF" stroke-width="5" stroke-linecap="round" stroke-miterlimit="10" x1="348.711" y1="2561.768" x2="364.041" y2="2555.763"/>
				
					<line fill="#8E1B24" stroke="#FFFFFF" stroke-width="5" stroke-linecap="round" stroke-miterlimit="10" x1="348.711" y1="2561.768" x2="364.041" y2="2555.763"/>
			</g>
			<g>
				
					<line fill="#FFFFFF" stroke="#8E1B24" stroke-width="3" stroke-linecap="round" stroke-miterlimit="10" x1="348.711" y1="2561.768" x2="364.041" y2="2555.763"/>
				
					<line fill="#FFFFFF" stroke="#8E1B24" stroke-width="3" stroke-linecap="round" stroke-miterlimit="10" x1="348.711" y1="2561.768" x2="364.041" y2="2555.763"/>
			</g>
		</g>
		<g>
			<path fill="#FFFFFF" d="M330.267,2558.765c0,1.274-0.569,2.309-1.273,2.309H310.67c-0.702,0-1.272-1.034-1.272-2.309l0,0
				c0-1.275,0.57-2.308,1.272-2.308h18.323C329.697,2556.457,330.267,2557.489,330.267,2558.765L330.267,2558.765z"/>
			<path d="M329.921,2558.765c0,1.032-0.552,1.871-1.231,1.871h-17.715c-0.681,0-1.233-0.839-1.233-1.871l0,0
				c0-1.033,0.553-1.871,1.233-1.871h17.715C329.369,2556.894,329.921,2557.731,329.921,2558.765L329.921,2558.765z"/>
		</g>
	</g>
</g>
<g id="list_of_positive">
	<rect y="2794.809" fill="none" width="595.28" height="20.191"/>
	<text transform="matrix(1 0 0 1 192.8276 2812.4727)" fill="#874E56" font-family="'CenturyGothic'" font-size="24">Positive outcomes</text>
	<rect x="115.384" y="2855.904" fill="none" width="166.179" height="151.096"/>
	<text transform="matrix(1 0 0 1 115.3843 2866.208)"><tspan x="0" y="0" fill="#874E56" font-family="'CenturyGothic-Bold'" font-size="14">Less time for contacting </tspan><tspan x="0" y="18" fill="#874E56" font-family="'CenturyGothic-Bold'" font-size="14">SOS</tspan><tspan x="0" y="36" fill="#874E56" font-family="'CenturyGothic'" font-size="14">Instead of having to use </tspan><tspan x="0" y="54" fill="#874E56" font-family="'CenturyGothic'" font-size="14">a landline or cell phone </tspan><tspan x="0" y="72" fill="#874E56" font-family="'CenturyGothic'" font-size="14">John can easily contact </tspan><tspan x="0" y="90" fill="#874E56" font-family="'CenturyGothic'" font-size="14">SOS and the ambu</tspan><tspan x="128.57" y="90" fill="#874E56" font-family="'CenturyGothic'" font-size="14">-</tspan><tspan x="0" y="108" fill="#874E56" font-family="'CenturyGothic'" font-size="14">lance only by removing </tspan><tspan x="0" y="126" fill="#874E56" font-family="'CenturyGothic'" font-size="14">the heart starter.</tspan></text>
	<rect x="313.719" y="3032.904" fill="none" width="166.178" height="179.096"/>
	<text transform="matrix(1 0 0 1 313.7188 3043.208)"><tspan x="0" y="0" fill="#874E56" font-family="'CenturyGothic-Bold'" font-size="14">Technology that exists</tspan><tspan x="0" y="18" fill="#874E56" font-family="'CenturyGothic'" font-size="14">This idea is based on </tspan><tspan x="0" y="36" fill="#874E56" font-family="'CenturyGothic'" font-size="14">technology that is avail</tspan><tspan x="157.985" y="36" fill="#874E56" font-family="'CenturyGothic'" font-size="14">-</tspan><tspan x="0" y="54" fill="#874E56" font-family="'CenturyGothic'" font-size="14">able today for every</tspan><tspan x="138.66" y="54" fill="#874E56" font-family="'CenturyGothic'" font-size="14">-</tspan><tspan x="0" y="72" fill="#874E56" font-family="'CenturyGothic'" font-size="14">one, which makes it </tspan><tspan x="0" y="90" fill="#874E56" font-family="'CenturyGothic'" font-size="14">more accessible and </tspan><tspan x="0" y="108" fill="#874E56" font-family="'CenturyGothic'" font-size="14">cheaper to implement, </tspan><tspan x="0" y="126" fill="#874E56" font-family="'CenturyGothic'" font-size="14">where no new develop</tspan><tspan x="158.252" y="126" fill="#874E56" font-family="'CenturyGothic'" font-size="14">-</tspan><tspan x="0" y="144" fill="#874E56" font-family="'CenturyGothic'" font-size="14">ment of technology will </tspan><tspan x="0" y="162" fill="#874E56" font-family="'CenturyGothic'" font-size="14">be necessary.</tspan></text>
	<rect x="313.718" y="2855.904" fill="none" width="166.179" height="166.096"/>
	<text transform="matrix(1 0 0 1 313.7178 2866.208)"><tspan x="0" y="0" fill="#874E56" font-family="'CenturyGothic-Bold'" font-size="14">Fewer instructions</tspan><tspan x="0" y="18" fill="#874E56" font-family="'CenturyGothic'" font-size="14">No instructions will be </tspan><tspan x="0" y="36" fill="#874E56" font-family="'CenturyGothic'" font-size="14">needed on how to con</tspan><tspan x="158.237" y="36" fill="#874E56" font-family="'CenturyGothic'" font-size="14">-</tspan><tspan x="0" y="54" fill="#874E56" font-family="'CenturyGothic'" font-size="14">tact SOS or other au</tspan><tspan x="136.937" y="54" fill="#874E56" font-family="'CenturyGothic'" font-size="14">-</tspan><tspan x="0" y="72" fill="#874E56" font-family="'CenturyGothic'" font-size="14">thorities, which is only </tspan><tspan x="0" y="90" fill="#874E56" font-family="'CenturyGothic'" font-size="14">time wasting and </tspan><tspan x="0" y="108" fill="#874E56" font-family="'CenturyGothic'" font-size="14">removes focus from </tspan><tspan x="0" y="126" fill="#874E56" font-family="'CenturyGothic'" font-size="14">helping the affected </tspan><tspan x="0" y="144" fill="#874E56" font-family="'CenturyGothic'" font-size="14">person.</tspan></text>
	<rect x="115.384" y="3032.904" fill="none" width="166.179" height="216.096"/>
	<text transform="matrix(1 0 0 1 115.3843 3043.208)"><tspan x="0" y="0" fill="#874E56" font-family="'CenturyGothic-Bold'" font-size="14">Handsfree</tspan><tspan x="0" y="18" fill="#874E56" font-family="'CenturyGothic'" font-size="14">As the microphone and </tspan><tspan x="0" y="36" fill="#874E56" font-family="'CenturyGothic'" font-size="14">speaker are built in into </tspan><tspan x="0" y="54" fill="#874E56" font-family="'CenturyGothic'" font-size="14">the heart starter there is </tspan><tspan x="0" y="72" fill="#874E56" font-family="'CenturyGothic'" font-size="14">no need of holding a </tspan><tspan x="0" y="90" fill="#874E56" font-family="'CenturyGothic'" font-size="14">cell phone in your hand, </tspan><tspan x="0" y="108" fill="#874E56" font-family="'CenturyGothic'" font-size="14">which means that both </tspan><tspan x="0" y="126" fill="#874E56" font-family="'CenturyGothic'" font-size="14">of Johns hands will be </tspan><tspan x="0" y="144" fill="#874E56" font-family="'CenturyGothic'" font-size="14">free and helping Dave </tspan><tspan x="0" y="162" fill="#874E56" font-family="'CenturyGothic'" font-size="14">will become easier.</tspan></text>
	<rect y="2995.952" fill="#874E56" width="89.55" height="52.096"/>
	<rect x="505.73" y="2995.952" fill="#874E56" width="89.55" height="52.096"/>
</g>
<g id="based_on">
	<rect x="193.123" y="3297.048" fill="none" width="209.034" height="14"/>
	<text transform="matrix(1 0 0 1 193.123 3310.1514)" fill="#8E1B24" font-family="'ArialRoundedMTBold'" font-size="18">M2M Innovation Awards</text>
	<rect x="66.438" y="3332.904" fill="none" width="462.405" height="71.096"/>
	<text transform="matrix(1 0 0 1 66.438 3343.208)"><tspan x="0" y="0" fill="#874E56" font-family="'CenturyGothic'" font-size="14">This was my submission to an innovation competition called M2M </tspan><tspan x="0" y="18" fill="#874E56" font-family="'CenturyGothic'" font-size="14">Innovation Awards, which is a nationwide competition for all of the </tspan><tspan x="0" y="36" fill="#874E56" font-family="'CenturyGothic'" font-size="14">university students around Sweden and was organized by Tele2 and </tspan><tspan x="0" y="54" fill="#874E56" font-family="'CenturyGothic'" font-size="14">held in 2013. </tspan></text>
	<rect x="182.921" y="3421" fill="none" width="229.438" height="10.5"/>
	<text transform="matrix(1 0 0 1 182.9209 3431.3037)" fill="#874E56" font-family="'CenturyGothic-Bold'" font-size="14">This idea gave me the 2:nd price.</text>
	<rect x="155" y="3549.356" fill="none" width="399.493" height="11.096"/>
	<text transform="matrix(1 0 0 1 155 3558.1885)" fill="#874E56" font-family="'CenturyGothic'" font-size="12">All information was based on the statistics from hjartstartarregistret.se</text>
</g>
</svg>
